<svg width="100" height="100" viewBox="0 0 100 100" xmlns="http://www.w3.org/2000/svg">
  <g fill="#1E90FF">
    <!-- Corpo -->
    <ellipse cx="50" cy="60" rx="15" ry="10"/>
    <!-- Cabeça -->
    <circle cx="50" cy="50" r="8"/>
    <!-- Bico -->
    <path d="M58 50 L65 48 L58 52 Z" fill="#FFA500"/>
    <!-- Olho -->
    <circle cx="53" cy="48" r="1.5" fill="black"/>
    <circle cx="52.5" cy="47.5" r="0.5" fill="white"/>
    <!-- Asas -->
    <path d="M45 55 Q35 45 40 35 Q38 50 45 55 Z" fill="#1E90FF"/>
    <path d="M45 55 Q35 65 40 75 Q38 60 45 55 Z" fill="#1E90FF"/>
    <!-- Pernas -->
    <line x1="48" y1="70" x2="48" y2="80" stroke="#FFA500" stroke-width="2"/>
    <line x1="52" y1="70" x2="52" y2="80" stroke="#FFA500" stroke-width="2"/>
    <!-- Pés -->
    <line x1="48" y1="80" x2="45" y2="82" stroke="#FFA500" stroke-width="1.5"/>
    <line x1="48" y1="80" x2="51" y2="82" stroke="#FFA500" stroke-width="1.5"/>
    <line x1="52" y1="80" x2="49" y2="82" stroke="#FFA500" stroke-width="1.5"/>
    <line x1="52" y1="80" x2="55" y2="82" stroke="#FFA500" stroke-width="1.5"/>
  </g>
</svg>