<svg width="100" height="100" viewBox="0 0 100 100" xmlns="http://www.w3.org/2000/svg">
  <g fill="#696969">
    <!-- Corpo -->
    <ellipse cx="50" cy="60" rx="20" ry="15"/>
    <!-- Cabeça -->
    <circle cx="50" cy="40" r="12"/>
    <!-- Orelhas pontudas -->
    <path d="M45 30 Q43 20 40 25 Q42 22 45 30 Z"/>
    <path d="M55 30 Q57 20 60 25 Q58 22 55 30 Z"/>
    <!-- Focinho -->
    <ellipse cx="50" cy="45" rx="4" ry="2" fill="#FFB6C1"/>
    <!-- Olhos -->
    <ellipse cx="45" cy="37" rx="2" ry="3" fill="green"/>
    <ellipse cx="55" cy="37" rx="2" ry="3" fill="green"/>
    <!-- Bigodes -->
    <line x1="45" y1="47" x2="35" y2="45" stroke="black" stroke-width="0.5"/>
    <line x1="45" y1="49" x2="35" y2="49" stroke="black" stroke-width="0.5"/>
    <line x1="55" y1="47" x2="65" y2="45" stroke="black" stroke-width="0.5"/>
    <line x1="55" y1="49" x2="65" y2="49" stroke="black" stroke-width="0.5"/>
    <!-- Rabo -->
    <path d="M70 60 Q80 40 65 70 Q75 55 70 60 Z" fill="#696969"/>
    <!-- Patas -->
    <ellipse cx="40" cy="75" rx="4" ry="2"/>
    <ellipse cx="60" cy="75" rx="4" ry="2"/>
  </g>
</svg>