<svg width="100" height="100" viewBox="0 0 100 100" xmlns="http://www.w3.org/2000/svg">
  <g fill="#FF6347">
    <!-- Corpo do peixe -->
    <ellipse cx="50" cy="50" rx="25" ry="15"/>
    <!-- Cauda -->
    <path d="M25 50 Q15 40 20 30 Q18 45 25 50 Z" fill="#FF6347"/>
    <path d="M25 50 Q15 60 20 70 Q18 55 25 50 Z" fill="#FF6347"/>
    <!-- Olho -->
    <circle cx="60" cy="47" r="3" fill="black"/>
    <circle cx="59" cy="46" r="1" fill="white"/>
    <!-- Barbatanas -->
    <path d="M45 40 Q40 35 45 30 Q43 37 45 40 Z" fill="#FF6347"/>
    <path d="M45 60 Q40 65 45 70 Q43 63 45 60 Z" fill="#FF6347"/>
    <!-- Listras -->
    <path d="M40 45 L45 45 L40 55 Z" fill="#FF8C00" opacity="0.7"/>
    <path d="M35 48 L40 48 L35 58 Z" fill="#FF8C00" opacity="0.7"/>
  </g>
</svg>