<svg width="100" height="100" viewBox="0 0 100 100" xmlns="http://www.w3.org/2000/svg">
  <g fill="#A0522D">
    <!-- Corpo -->
    <ellipse cx="50" cy="60" rx="20" ry="12"/>
    <!-- Cabeça -->
    <ellipse cx="50" cy="45" rx="12" ry="8"/>
    <!-- Orelhas -->
    <ellipse cx="43" cy="40" rx="3" ry="2" fill="#8B4513"/>
    <ellipse cx="57" cy="40" rx="3" ry="2" fill="#8B4513"/>
    <!-- Olhos -->
    <circle cx="45" cy="43" r="1.5" fill="black"/>
    <circle cx="55" cy="43" r="1.5" fill="black"/>
    <!-- Focinho -->
    <ellipse cx="50" cy="48" rx="4" ry="2" fill="#8B4513"/>
    <!-- Bigodes -->
    <line x1="47" y1="50" x2="40" y2="48" stroke="black" stroke-width="0.5"/>
    <line x1="47" y1="52" x2="40" y2="52" stroke="black" stroke-width="0.5"/>
    <line x1="53" y1="50" x2="60" y2="48" stroke="black" stroke-width="0.5"/>
    <line x1="53" y1="52" x2="60" y2="52" stroke="black" stroke-width="0.5"/>
    <!-- Patas dianteiras -->
    <ellipse cx="40" cy="65" rx="4" ry="2"/>
    <ellipse cx="60" cy="65" rx="4" ry="2"/>
    <!-- Patas traseiras -->
    <ellipse cx="35" cy="70" rx="4" ry="2"/>
    <ellipse cx="65" cy="70" rx="4" ry="2"/>
    <!-- Rabinho -->
    <ellipse cx="70" cy="55" rx="6" ry="2" transform="rotate(30 70 55)"/>
  </g>
</svg>