<svg width="100" height="100" viewBox="0 0 100 100" xmlns="http://www.w3.org/2000/svg">
  <g fill="#D2B48C">
    <!-- Corpo -->
    <ellipse cx="50" cy="60" rx="20" ry="15"/>
    <!-- Cabeça -->
    <circle cx="50" cy="45" r="12"/>
    <!-- Orelhas -->
    <circle cx="43" cy="38" r="3"/>
    <circle cx="57" cy="38" r="3"/>
    <!-- Olhos -->
    <circle cx="45" cy="42" r="1.5" fill="black"/>
    <circle cx="55" cy="42" r="1.5" fill="black"/>
    <!-- Focinho -->
    <ellipse cx="50" cy="50" rx="4" ry="2" fill="#8B4513"/>
    <!-- Bigodes -->
    <line x1="47" y1="52" x2="40" y2="50" stroke="black" stroke-width="0.5"/>
    <line x1="47" y1="54" x2="40" y2="54" stroke="black" stroke-width="0.5"/>
    <line x1="53" y1="52" x2="60" y2="50" stroke="black" stroke-width="0.5"/>
    <line x1="53" y1="54" x2="60" y2="54" stroke="black" stroke-width="0.5"/>
    <!-- Patas dianteiras -->
    <circle cx="40" cy="65" r="4"/>
    <circle cx="60" cy="65" r="4"/>
    <!-- Patas traseiras -->
    <ellipse cx="35" cy="70" rx="5" ry="3"/>
    <ellipse cx="65" cy="70" rx="5" ry="3"/>
    <!-- Rabinho -->
    <ellipse cx="70" cy="55" rx="8" ry="2" transform="rotate(45 70 55)"/>
  </g>
</svg>