<?xml version="1.0" encoding="iso-8859-1"?>
<!-- Uploaded to: SVG Repo, www.svgrepo.com, Generator: SVG Repo Mixer Tools -->
<svg height="800px" width="800px" version="1.1" id="Layer_1" xmlns="http://www.w3.org/2000/svg" xmlns:xlink="http://www.w3.org/1999/xlink" 
	 viewBox="0 0 512 512" xml:space="preserve">
<g>
	<path style="fill:#FBD971;" d="M512,256c0,141.383-114.617,256-256,256S0,397.383,0,256S114.617,0,256,0S512,114.617,512,256"/>
	<g>
		<path style="fill:#FFFFFF;" d="M211.862,150.069c0,29.255-23.711,52.966-52.966,52.966c-29.255,0-52.966-23.711-52.966-52.966
			s23.711-52.966,52.966-52.966C188.151,97.103,211.862,120.814,211.862,150.069"/>
		<path style="fill:#FFFFFF;" d="M406.069,150.069c0,29.255-23.711,52.966-52.966,52.966c-29.255,0-52.966-23.711-52.966-52.966
			s23.711-52.966,52.966-52.966C382.358,97.103,406.069,120.814,406.069,150.069"/>
	</g>
	<g>
		<path d="M185.379,123.586c0,14.627-11.855,26.483-26.483,26.483c-14.627,0-26.483-11.855-26.483-26.483
			s11.855-26.483,26.483-26.483C173.524,97.103,185.379,108.959,185.379,123.586"/>
		<path d="M379.586,123.586c0,14.627-11.855,26.483-26.483,26.483c-14.627,0-26.483-11.855-26.483-26.483
			s11.855-26.483,26.483-26.483C367.731,97.103,379.586,108.959,379.586,123.586"/>
	</g>
	<path style="fill:#C03A2B;" d="M317.793,335.448c0,43.882-27.666,79.448-61.793,79.448s-61.793-35.566-61.793-79.448
		S221.873,256,256,256S317.793,291.566,317.793,335.448"/>
</g>
</svg>