<svg xmlns="http://www.w3.org/2000/svg" viewBox="0 0 200 200" width="200" height="200">
  <circle cx="100" cy="100" r="95" fill="#fff3e0" stroke="#e65100" stroke-width="2"/>

  <rect x="52" y="72" width="28" height="78" rx="14" fill="#ff7043"/>
  <rect x="120" y="72" width="28" height="78" rx="14" fill="#ff7043"/>

  <path d="M70 70 Q100 56 130 70 L130 158 Q100 174 70 158 Z" fill="#ff5722"/>

  <path d="M70 70 L92 86 L92 158 Q80 154 70 158 Z" fill="#f4511e"/>
  <path d="M130 70 L108 86 L108 158 Q120 154 130 158 Z" fill="#f4511e"/>

  <path d="M80 74 Q100 64 120 74 L112 94 Q100 86 88 94 Z" fill="#bf360c"/>
  <path d="M82 76 Q100 66 118 76" stroke="#8d2a0a" stroke-width="2" fill="none"/>

  <line x1="100" y1="86" x2="100" y2="162" stroke="#ffffff" stroke-width="3" opacity="0.9"/>
  <line x1="100" y1="86" x2="100" y2="162" stroke="#8d2a0a" stroke-width="1" opacity="0.6"/>

  <circle cx="100" cy="98" r="2" fill="#fff" stroke="#666" stroke-width="1"/>
  <circle cx="100" cy="112" r="2" fill="#fff" stroke="#666" stroke-width="1"/>
  <circle cx="100" cy="126" r="2" fill="#fff" stroke="#666" stroke-width="1"/>
  <circle cx="100" cy="140" r="2" fill="#fff" stroke="#666" stroke-width="1"/>

  <path d="M78 106 Q88 100 94 110 L92 132 Q86 136 78 130 Z" fill="#e64a19"/>
  <path d="M122 106 Q112 100 106 110 L108 132 Q114 136 122 130 Z" fill="#e64a19"/>
  <path d="M78 106 Q88 100 94 110" stroke="#bf360c" stroke-width="1" fill="none" opacity="0.8"/>
  <path d="M122 106 Q112 100 106 110" stroke="#bf360c" stroke-width="1" fill="none" opacity="0.8"/>

  <line x1="70" y1="88" x2="70" y2="152" stroke="#d84315" stroke-width="1" opacity="0.8"/>
  <line x1="130" y1="88" x2="130" y2="152" stroke="#d84315" stroke-width="1" opacity="0.8"/>

  <line x1="60" y1="86" x2="60" y2="140" stroke="#ff8a65" stroke-width="0.8" opacity="0.35"/>
  <line x1="66" y1="86" x2="66" y2="140" stroke="#ff8a65" stroke-width="0.8" opacity="0.35"/>
  <line x1="134" y1="86" x2="134" y2="140" stroke="#ff8a65" stroke-width="0.8" opacity="0.35"/>
  <line x1="140" y1="86" x2="140" y2="140" stroke="#ff8a65" stroke-width="0.8" opacity="0.35"/>

  <ellipse cx="100" cy="174" rx="38" ry="8" fill="#000" opacity="0.2"/>

  <rect x="138" y="92" width="12" height="8" fill="#fff" stroke="#666" stroke-width="1"/>
  <text x="140" y="98" font-family="Arial" font-size="6" fill="#333">S</text>
</svg>
