<svg xmlns="http://www.w3.org/2000/svg" viewBox="0 0 200 200" width="200" height="200">
  <circle cx="100" cy="100" r="95" fill="#e8f5e9" stroke="#2e7d32" stroke-width="2"/>

  <path d="M78 72 Q100 56 122 72 Q128 78 122 86 Q100 102 78 86 Q72 78 78 72 Z" fill="#43a047"/>
  <path d="M84 76 Q100 64 116 76 Q118 78 116 80 Q100 92 84 80 Q82 78 84 76 Z" fill="#2e7d32" opacity="0.35"/>

  <rect x="86" y="88" width="24" height="76" rx="10" fill="#4caf50"/>
  <rect x="104" y="94" width="24" height="70" rx="10" fill="#43a047"/>

  <line x1="90" y1="104" x2="108" y2="104" stroke="#c8e6c9" stroke-width="3" opacity="0.9"/>
  <line x1="90" y1="118" x2="108" y2="118" stroke="#c8e6c9" stroke-width="3" opacity="0.9"/>
  <line x1="108" y1="112" x2="126" y2="112" stroke="#c8e6c9" stroke-width="3" opacity="0.9"/>
  <line x1="108" y1="126" x2="126" y2="126" stroke="#c8e6c9" stroke-width="3" opacity="0.9"/>

  <line x1="86" y1="156" x2="110" y2="156" stroke="#1b5e20" stroke-width="2" opacity="0.6"/>
  <line x1="104" y1="158" x2="128" y2="158" stroke="#1b5e20" stroke-width="2" opacity="0.6"/>

  <line x1="88" y1="164" x2="88" y2="176" stroke="#2e7d32" stroke-width="2"/>
  <line x1="92" y1="164" x2="92" y2="176" stroke="#2e7d32" stroke-width="2"/>
  <line x1="96" y1="164" x2="96" y2="176" stroke="#2e7d32" stroke-width="2"/>
  <line x1="100" y1="164" x2="100" y2="176" stroke="#2e7d32" stroke-width="2"/>
  <line x1="104" y1="164" x2="104" y2="176" stroke="#2e7d32" stroke-width="2"/>
  <line x1="108" y1="164" x2="108" y2="176" stroke="#2e7d32" stroke-width="2"/>
  <line x1="110" y1="164" x2="110" y2="176" stroke="#2e7d32" stroke-width="2"/>
  <line x1="114" y1="164" x2="114" y2="176" stroke="#2e7d32" stroke-width="2"/>
  <line x1="118" y1="164" x2="118" y2="176" stroke="#2e7d32" stroke-width="2"/>
  <line x1="122" y1="164" x2="122" y2="176" stroke="#2e7d32" stroke-width="2"/>
  <line x1="126" y1="164" x2="126" y2="176" stroke="#2e7d32" stroke-width="2"/>

  <ellipse cx="104" cy="178" rx="34" ry="7" fill="#000" opacity="0.2"/>
</svg>
