<svg xmlns="http://www.w3.org/2000/svg" viewBox="0 0 128 128">
  <g fill="none" stroke-linecap="round" stroke-linejoin="round" stroke-width="5">
    <path d="M64 22 Q40 30 40 60 Q40 104 64 108 Q88 104 88 60 Q88 30 64 22 Z" fill="#1b1b1b" stroke="#2b2b2b"/>
    <path d="M64 38 Q52 42 52 60 Q52 88 64 92 Q76 88 76 60 Q76 42 64 38 Z" fill="#ffffff" stroke="#2b2b2b"/>
    <circle cx="56" cy="52" r="4" fill="#1b1b1b" stroke="#1b1b1b"/>
    <circle cx="72" cy="52" r="4" fill="#1b1b1b" stroke="#1b1b1b"/>
    <path d="M64 58 L58 64 L64 66 L70 64 Z" fill="#ffb74d" stroke="#2b2b2b" stroke-width="3"/>
    <path d="M44 62 Q34 70 42 84" stroke="#2b2b2b"/>
    <path d="M84 62 Q94 70 86 84" stroke="#2b2b2b"/>
  </g>
</svg>
