<?xml version="1.0" encoding="iso-8859-1"?>
<!-- Uploaded to: SVG Repo, www.svgrepo.com, Generator: SVG Repo Mixer Tools -->
<svg height="800px" width="800px" version="1.1" id="Layer_1" xmlns="http://www.w3.org/2000/svg" xmlns:xlink="http://www.w3.org/1999/xlink" 
	 viewBox="0 0 511.996 511.996" xml:space="preserve">
<g>
	<path style="fill:#BDC3C7;" d="M351.455,104.131c-2.083,0-4.174-0.746-5.84-2.256l-89.617-81.469l-89.617,81.469
		c-3.532,3.228-9.034,2.968-12.262-0.581c-3.22-3.549-2.959-9.042,0.581-12.262l95.458-86.78c3.306-3.003,8.374-3.003,11.681,0
		l95.458,86.78c3.541,3.22,3.801,8.713,0.581,12.262C356.168,103.177,353.807,104.131,351.455,104.131"/>
	<path style="fill:#C03A2B;" d="M438.235,164.877H73.761v-52.068c0-9.58,7.775-17.356,17.356-17.356h329.763
		c9.58,0,17.356,7.775,17.356,17.356V164.877z"/>
	<path style="fill:#ECF0F1;" d="M420.879,511.996H91.116c-9.58,0-17.356-7.775-17.356-17.356V164.877h364.475V494.64
		C438.235,504.22,430.46,511.996,420.879,511.996"/>
	<g>
		<path style="fill:#2C3E50;" d="M177.896,364.47c-2.222,0-4.443-0.85-6.135-2.543c-3.393-3.393-3.393-8.878,0-12.271l26.034-26.034
			c3.393-3.393,8.878-3.393,12.271,0c3.393,3.393,3.393,8.878,0,12.271l-26.034,26.034
			C182.339,363.62,180.118,364.47,177.896,364.47"/>
		<path style="fill:#2C3E50;" d="M203.93,477.284c-4.799,0-8.678-3.888-8.678-8.678V329.758c0-4.79,3.879-8.678,8.678-8.678
			c4.799,0,8.678,3.888,8.678,8.678v138.847C212.608,473.396,208.729,477.284,203.93,477.284"/>
		<path style="fill:#2C3E50;" d="M229.964,477.284h-52.068c-4.799,0-8.678-3.888-8.678-8.678s3.879-8.678,8.678-8.678h52.068
			c4.799,0,8.678,3.888,8.678,8.678S234.763,477.284,229.964,477.284"/>
		<path style="fill:#2C3E50;" d="M255.989,433.894c-1.406,0-2.829-0.338-4.148-1.059c-4.209-2.3-5.762-7.567-3.463-11.776
			l52.068-95.458c2.3-4.209,7.585-5.762,11.767-3.462c4.217,2.3,5.771,7.567,3.471,11.776l-52.068,95.458
			C262.038,432.263,259.061,433.894,255.989,433.894"/>
		<path style="fill:#2C3E50;" d="M308.066,477.284c-4.799,0-8.678-3.888-8.678-8.678V329.758c0-4.79,3.879-8.678,8.678-8.678
			c4.799,0,8.678,3.888,8.678,8.678v138.847C316.744,473.396,312.865,477.284,308.066,477.284"/>
		<path style="fill:#2C3E50;" d="M325.422,433.894h-69.424c-4.799,0-8.678-3.888-8.678-8.678s3.879-8.678,8.678-8.678h69.424
			c4.799,0,8.678,3.888,8.678,8.678S330.22,433.894,325.422,433.894"/>
		<path style="fill:#2C3E50;" d="M177.896,286.369c-4.799,0-8.678-3.888-8.678-8.678v-69.424c0-4.79,3.879-8.678,8.678-8.678
			s8.678,3.888,8.678,8.678v69.424C186.574,282.481,182.695,286.369,177.896,286.369"/>
		<path style="fill:#2C3E50;" d="M203.93,216.945h-26.034c-4.799,0-8.678-3.888-8.678-8.678s3.879-8.678,8.678-8.678h26.034
			c4.799,0,8.678,3.888,8.678,8.678S208.729,216.945,203.93,216.945"/>
		<path style="fill:#2C3E50;" d="M203.93,251.657h-26.034c-4.799,0-8.678-3.888-8.678-8.678s3.879-8.678,8.678-8.678h26.034
			c4.799,0,8.678,3.888,8.678,8.678S208.729,251.657,203.93,251.657"/>
		<path style="fill:#2C3E50;" d="M238.642,286.369c-4.799,0-8.678-3.888-8.678-8.678v-69.424c0-4.79,3.879-8.678,8.678-8.678
			c4.799,0,8.678,3.888,8.678,8.678v69.424C247.32,282.481,243.441,286.369,238.642,286.369"/>
		<path style="fill:#2C3E50;" d="M264.676,216.945h-26.034c-4.799,0-8.678-3.888-8.678-8.678s3.879-8.678,8.678-8.678h26.034
			c4.799,0,8.678,3.888,8.678,8.678S269.475,216.945,264.676,216.945"/>
		<path style="fill:#2C3E50;" d="M264.676,251.657h-26.034c-4.799,0-8.678-3.888-8.678-8.678s3.879-8.678,8.678-8.678h26.034
			c4.799,0,8.678,3.888,8.678,8.678S269.475,251.657,264.676,251.657"/>
		<path style="fill:#2C3E50;" d="M264.676,286.369h-26.034c-4.799,0-8.678-3.888-8.678-8.678c0-4.79,3.879-8.678,8.678-8.678h26.034
			c4.799,0,8.678,3.888,8.678,8.678C273.354,282.481,269.475,286.369,264.676,286.369"/>
		<path style="fill:#2C3E50;" d="M299.388,286.369c-4.799,0-8.678-3.888-8.678-8.678v-69.424c0-4.79,3.879-8.678,8.678-8.678
			s8.678,3.888,8.678,8.678v69.424C308.066,282.481,304.187,286.369,299.388,286.369"/>
		<path style="fill:#2C3E50;" d="M308.066,234.301h8.678c4.79,0,8.678-3.896,8.678-8.678c0-4.782-3.888-8.678-8.678-8.678h-8.678
			V234.301z M316.744,251.657h-17.356c-4.799,0-8.678-3.888-8.678-8.678v-34.712c0-4.79,3.879-8.678,8.678-8.678h17.356
			c14.353,0,26.034,11.681,26.034,26.034C342.777,239.976,331.097,251.657,316.744,251.657L316.744,251.657z"/>
		<path style="fill:#2C3E50;" d="M308.066,269.013h8.678c4.79,0,8.678-3.896,8.678-8.678c0-4.782-3.888-8.678-8.678-8.678h-8.678
			V269.013z M316.744,286.369h-17.356c-4.799,0-8.678-3.888-8.678-8.678v-34.712c0-4.79,3.879-8.678,8.678-8.678h17.356
			c14.353,0,26.034,11.681,26.034,26.034C342.777,274.688,331.097,286.369,316.744,286.369L316.744,286.369z"/>
	</g>
	<g>
		<path style="fill:#96241B;" d="M386.167,121.487c-4.799,0-8.678,3.888-8.678,8.678c0,4.79,3.879,8.678,8.678,8.678h52.068v-17.356
			H386.167z"/>
		<path style="fill:#96241B;" d="M125.828,138.843c4.799,0,8.678-3.888,8.678-8.678c0-4.79-3.879-8.678-8.678-8.678H73.761v17.356
			H125.828z"/>
	</g>
</g>
</svg>